/* XPM */
static const char * circle_xpm[] = {
"16 16 69 1",
" 	c None",
".	c #EC5C77",
"+	c #ED647E",
"@	c #ED6B84",
"#	c #EE728A",
"$	c #EB5471",
"%	c #ED647D",
"&	c #ED6A83",
"*	c #EE738A",
"=	c #EF7A90",
"-	c #F08296",
";	c #F1899D",
">	c #EA5570",
",	c #EC637D",
"'	c #EF7990",
")	c #F290A2",
"!	c #F398A8",
"~	c #EC5B76",
"{	c #EE6A84",
"]	c #EE7289",
"^	c #EF798F",
"/	c #F08196",
"(	c #F1899C",
"_	c #F398A9",
":	c #F49FAF",
"<	c #EB5C77",
"[	c #ED637D",
"}	c #ED6B83",
"|	c #F0889C",
"1	c #F290A3",
"2	c #F297A8",
"3	c #F49FAE",
"4	c #F5A6B6",
"5	c #F5AEBC",
"6	c #EE6A83",
"7	c #F1889C",
"8	c #F297A9",
"9	c #F39EAF",
"0	c #F5A6B5",
"a	c #F5ADBC",
"b	c #F6B5C1",
"c	c #EE7189",
"d	c #EF7A8F",
"e	c #F397A9",
"f	c #F4A6B5",
"g	c #F5AEBB",
"h	c #F7BDC7",
"i	c #F1889B",
"j	c #F397A8",
"k	c #F49EAF",
"l	c #F5A6B4",
"m	c #F6ADBB",
"n	c #F7BCC7",
"o	c #F8C3CE",
"p	c #F18FA2",
"q	c #F39EAE",
"r	c #F5ADBB",
"s	c #F7BDC8",
"t	c #F8C4CE",
"u	c #F28FA2",
"v	c #F4A5B5",
"w	c #F7B4C1",
"x	c #F9CBD3",
"y	c #F396A8",
"z	c #F4A5B4",
"A	c #F6ADBA",
"B	c #F5ADBA",
"C	c #F6B4C0",
"D	c #F7BCC8",
"                ",
"                ",
"      .+@#      ",
"    $.%&*=-;    ",
"   >.,@#'-;)!   ",
"   ~%{]^/()_:   ",
"  <[}]'/|12345  ",
"  [6]^/7)890ab  ",
"  }cd/7)e9fgbh  ",
"  ]^/i)jklmbno  ",
"   /7peqfrbst   ",
"   7ujqvrwstx   ",
"    ykzAbntx    ",
"      BCDt      ",
"                ",
"                "};
