/* XPM */
static const char * group1_xpm[] = {
"16 16 234 2",
"  	c None",
". 	c #81E6E1",
"+ 	c #78BAB7",
"@ 	c #7DAAA8",
"# 	c #85A8A6",
"$ 	c #89A8A7",
"% 	c #8BA8A7",
"& 	c #8CA8A7",
"* 	c #8DA8A7",
"= 	c #8EA8A6",
"- 	c #8DA7A6",
"; 	c #98B3B2",
"> 	c #C4E6E4",
", 	c #D8FEFC",
"' 	c #DAFFFD",
") 	c #7ABAB7",
"! 	c #475C5B",
"~ 	c #5A6363",
"{ 	c #5F6969",
"] 	c #5E6969",
"^ 	c #5D6969",
"/ 	c #5C6969",
"( 	c #5C6968",
"_ 	c #576362",
": 	c #454B4B",
"< 	c #4B5252",
"[ 	c #899D9C",
"} 	c #C7E7E5",
"| 	c #DCFEFC",
"1 	c #DCFFFD",
"2 	c #80AAA8",
"3 	c #C2C8C7",
"4 	c #D6E2E0",
"5 	c #D2E2E0",
"6 	c #CEE2E0",
"7 	c #CCE1E0",
"8 	c #CAE1E0",
"9 	c #C9E1E0",
"0 	c #BACECD",
"a 	c #858B8B",
"b 	c #6A6B6B",
"c 	c #585E5E",
"d 	c #8A9E9C",
"e 	c #CAE8E6",
"f 	c #DFFEFC",
"g 	c #87A8A7",
"h 	c #606969",
"i 	c #D8E2E0",
"j 	c #F8FFFE",
"k 	c #F4FEFE",
"l 	c #EEFCFE",
"m 	c #E5F7FE",
"n 	c #E3F9FE",
"o 	c #E6FDFE",
"p 	c #D6E9E9",
"q 	c #989E9E",
"r 	c #7E7F7F",
"s 	c #6A6A6A",
"t 	c #4C5251",
"u 	c #A6BBBA",
"v 	c #E0FDFB",
"w 	c #D4E1E0",
"x 	c #F0F9FE",
"y 	c #E0E9FE",
"z 	c #CFDCFE",
"A 	c #BECFFE",
"B 	c #BED2FE",
"C 	c #CDE2FE",
"D 	c #D6E8EE",
"E 	c #AEB6B6",
"F 	c #9CA0A0",
"G 	c #878C8B",
"H 	c #474C4C",
"I 	c #A0B2B1",
"J 	c #E3FCFC",
"K 	c #8EA8A7",
"L 	c #CCDDE0",
"M 	c #D1E0FE",
"N 	c #A7B7FE",
"O 	c #9EAFFE",
"P 	c #9BADFE",
"Q 	c #96AAFE",
"R 	c #9AAFFE",
"S 	c #C6D8FB",
"T 	c #DBEAEF",
"U 	c #DCEBEA",
"V 	c #BFCDCC",
"W 	c #5A6261",
"X 	c #A2B2B2",
"Y 	c #E6FCFC",
"Z 	c #BBCEE0",
"` 	c #AABEFE",
" .	c #A5B7FE",
"..	c #D5DEFE",
"+.	c #E2E9FE",
"@.	c #D6E0FE",
"#.	c #B3C3FE",
"$.	c #B5C7FE",
"%.	c #E0EFFE",
"&.	c #F0FFFE",
"*.	c #D0DEDD",
"=.	c #606767",
"-.	c #A4B2B2",
";.	c #E8FCFC",
">.	c #8FA8A7",
",.	c #5D6869",
"'.	c #AABFE0",
").	c #92AAFE",
"!.	c #BDCEFE",
"~.	c #EFF6FE",
"{.	c #FCFFFE",
"].	c #F8FCFE",
"^.	c #E9F0FE",
"/.	c #E0EAFE",
"(.	c #EDF8FE",
"_.	c #F3FFFE",
":.	c #D2DEDD",
"<.	c #616767",
"[.	c #A7B2B2",
"}.	c #EBFCFC",
"|.	c #90A8A7",
"1.	c #A3BAE0",
"2.	c #88A2FE",
"3.	c #C4D6FE",
"4.	c #FAFFFE",
"5.	c #FBFEFE",
"6.	c #F8FDFE",
"7.	c #F7FEFE",
"8.	c #F6FFFE",
"9.	c #D5DEDD",
"0.	c #626767",
"a.	c #A8B2B2",
"b.	c #EEFCFC",
"c.	c #5C6869",
"d.	c #A2BAE0",
"e.	c #C2D4FE",
"f.	c #EDF9FE",
"g.	c #FAFEFE",
"h.	c #F5F8FE",
"i.	c #ECF1FE",
"j.	c #F4FAFE",
"k.	c #D7DEDD",
"l.	c #636767",
"m.	c #AAB2B2",
"n.	c #F0FCFC",
"o.	c #91A8A7",
"p.	c #ABC3E0",
"q.	c #93ADFE",
"r.	c #B1C6FE",
"s.	c #E2F0FE",
"t.	c #F3FDFE",
"u.	c #EEF6FE",
"v.	c #CED8FE",
"w.	c #B3C0FE",
"x.	c #E4EAFE",
"y.	c #D9DEDD",
"z.	c #646767",
"A.	c #ABB2B2",
"B.	c #F2FCFC",
"C.	c #92A8A7",
"D.	c #BDD4E0",
"E.	c #AEC8FE",
"F.	c #95ADFE",
"G.	c #BED0FE",
"H.	c #D7E5FE",
"I.	c #C9D7FE",
"J.	c #A0B1FE",
"K.	c #ACBAFE",
"L.	c #E8ECFE",
"M.	c #DBDEDD",
"N.	c #656767",
"O.	c #ADB2B2",
"P.	c #F4FCFC",
"Q.	c #5E6968",
"R.	c #C8DFE0",
"S.	c #D1EAFE",
"T.	c #ACC3FE",
"U.	c #99B0FE",
"V.	c #96ABFE",
"W.	c #9AAEFE",
"X.	c #ABBCFE",
"Y.	c #D8E1FE",
"Z.	c #F6FAFE",
"`.	c #FDFFFE",
" +	c #DCDEDD",
".+	c #666767",
"++	c #AEB2B2",
"@+	c #F6FCFC",
"#+	c #92A9A8",
"$+	c #566160",
"%+	c #B2C7C6",
"&+	c #C8DEE0",
"*+	c #BED1E0",
"=+	c #B0C2E0",
"-+	c #ABBBE0",
";+	c #B2C0E0",
">+	c #C3CDE0",
",+	c #D6DCE0",
"'+	c #DEE1E0",
")+	c #E0E2E0",
"!+	c #C4C4C4",
"~+	c #5F6060",
"{+	c #B0B3B2",
"]+	c #F7FCFC",
"^+	c #9BB3B2",
"/+	c #475150",
"(+	c #576160",
"_+	c #616869",
":+	c #626869",
"<+	c #636869",
"[+	c #646869",
"}+	c #666969",
"|+	c #676969",
"1+	c #686969",
"2+	c #606060",
"3+	c #515252",
"4+	c #BABCBC",
"5+	c #F9FDFC",
"6+	c #C4E2E0",
"7+	c #9EB3B2",
"8+	c #96A9A8",
"9+	c #98A8A8",
"0+	c #9AA8A8",
"a+	c #9CA8A8",
"b+	c #9DA8A8",
"c+	c #9FA8A8",
"d+	c #A0A8A8",
"e+	c #A2A8A8",
"f+	c #A4A8A8",
"g+	c #A5A8A8",
"h+	c #A6A9A8",
"i+	c #B3B4B4",
"j+	c #E4E5E4",
"k+	c #FCFEFD",
". + @ # $ % & * * = - ; > , ' ' ",
") ! ~ { ] ^ / ( ( _ : < [ } | 1 ",
"2 ~ 3 4 5 6 7 8 9 0 a b c d e f ",
"g h i j k l m n o p q r s t u v ",
"% { w x y z A B C D E F G H I J ",
"K { L M N O P Q R S T U V W X Y ",
"K ] Z `  ...+.@.#.$.%.&.*.=.-.;.",
">.,.'.).!.~.{.].^./.(._.:.<.[.}.",
"|.,.1.2.3.x 4.{.5.6.7.8.9.0.a.b.",
"|.c.d.2.e.f.j g.h.i.j.j k.l.m.n.",
"o.,.p.q.r.s.t.u.v.w.x.g.y.z.A.B.",
"C.^ D.E.F.G.H.I.J.K.L.{.M.N.O.P.",
"C.Q.R.S.T.U.V.W.X.Y.Z.`. +.+++@+",
"#+$+%+&+*+=+-+;+>+,+'+)+!+~+{+]+",
"^+/+(+{ h _+:+<+[+}+|+1+2+3+4+5+",
"6+7+8+9+0+a+b+c+d+e+f+g+h+i+j+k+"};
