/* XPM */
static const char * aamud11_xpm[] = {
"46 46 25 1",
" 	c None",
".	c #FFFFFF",
"+	c #AAAAAA",
"@	c #808080",
"#	c #CCCCCC",
"$	c #55A6AA",
"%	c #BA7736",
"&	c #F2CD1F",
"*	c #BA9036",
"=	c #A31A1A",
"-	c #B27234",
";	c #F21F1F",
">	c #7D1616",
",	c #911919",
"'	c #AB5B2E",
")	c #8E1414",
"!	c #721414",
"~	c #8B1515",
"{	c #7E1313",
"]	c #891414",
"^	c #861212",
"/	c #781313",
"(	c #807777",
"_	c #7E7E7E",
":	c #787777",
"                                              ",
"                                              ",
"                                              ",
"                                              ",
"                                              ",
"                                              ",
"                                              ",
"                                              ",
"                                              ",
"                                              ",
"                                              ",
"                             .....            ",
"                            ..++++@           ",
"                           ..+###+@           ",
"                          ..+##+#+@           ",
"                         ..+##+##+@           ",
"                        ..+##+##+@@           ",
"                       ..+##+##+@@            ",
"                      ..+##+##+@@             ",
"                     ..+##+##+@@              ",
"                    ..+##+##+@@               ",
"                   ..+##+##+@@                ",
"                  ..+##+##+@@                 ",
"                 ..+##+##+@@                  ",
"                ..+##+##+@@                   ",
"          ...  ..+##+##+@@                    ",
"          .$$...+##+##+@@                     ",
"           .$$.+##+##+@@                      ",
"            .$$##+##+@@                       ",
"           ..%%$+##+@@                        ",
"          ..%%&&$#+@@                         ",
"         ..%%&&&%$.@                          ",
"        ..%***&%%$$.                          ",
"        .=-*;*%%@.$$@                         ",
"        .>-***%@@ .$@                         ",
"       ..,'%%%@@   @@                         ",
"       .)!~{]@@                               ",
"       .^/(_:@                                ",
"        _:@                                   ",
"                                              ",
"                                              ",
"                                              ",
"                                              ",
"                                              ",
"                                              ",
"                                              "};
