/* XPM */
static const char * net_xpm[] = {
"16 16 30 1",
" 	c None",
".	c #000000",
"+	c #020D10",
"@	c #1795BF",
"#	c #1D9BC1",
"$	c #1DA1C1",
"%	c #17A3BF",
"&	c #179FBF",
"*	c #1798BF",
"=	c #17A1BF",
"-	c #17AABF",
";	c #1799BF",
">	c #17A2BF",
",	c #179EBF",
"'	c #179ABF",
")	c #19A3C0",
"!	c #86C8DE",
"~	c #50B3CF",
"{	c #26A4C3",
"]	c #17B1BF",
"^	c #17B0BF",
"/	c #17AFBF",
"(	c #17AEBF",
"_	c #999999",
":	c #17A8BF",
"<	c #17A7BF",
"[	c #17A6BF",
"}	c #17A0BF",
"|	c #1797BF",
"1	c #1796BF",
"                ",
" .+.....        ",
" .@#$%&.        ",
" .@*=--.        ",
" .@;>,'.        ",
" .@').......    ",
" .!~{.]]]]].    ",
"......^^//(.    ",
".____.:<<[[.    ",
"......}&&&,.    ",
"     .|*||1.    ",
"   ...........  ",
"   ._________.  ",
"   ...........  ",
"                ",
"                "};
