/* XPM */
static const char * prefs_xpm[] = {
"16 16 6 1",
" 	c None",
".	c #7F7F7F",
"+	c #B2B2B2",
"@	c #7F0000",
"#	c #D22020",
"$	c #0000FF",
"   ....         ",
"   ....       +.",
" ..  ..      +.+",
" ..  ..     +.+ ",
" ..  .@    +.+  ",
" ...@@@@  +.+   ",
" ..@@##+++.+    ",
"    @#+$$++     ",
"     +$$$+      ",
"    +$$$$+      ",
"   +$$$$+#      ",
"  +$$$$+###     ",
" +$$$$+  ##     ",
"+$$$$+    ##    ",
"+$$$+      #    ",
"++++            "};
