/* XPM */
static const char * root1_xpm[] = {
"16 16 76 1",
" 	c None",
".	c #3C87FF",
"+	c #478EFF",
"@	c #5294FF",
"#	c #5C9BFF",
"$	c #64A0FF",
"%	c #6BA4FF",
"&	c #71A7FF",
"*	c #74A9FF",
"=	c #75AAFF",
"-	c #74AAFF",
";	c #71A8FF",
">	c #6CA4FF",
",	c #5295FF",
"'	c #498EFF",
")	c #5E9CFF",
"!	c #68A2FF",
"~	c #72A8FF",
"{	c #7AACFF",
"]	c #7FB0FF",
"^	c #83B2FF",
"/	c #84B3FF",
"(	c #7AADFF",
"_	c #69A2FF",
":	c #5496FF",
"<	c #76ABFF",
"[	c #81B1FF",
"}	c #89B6FF",
"|	c #90BAFF",
"1	c #94BDFF",
"2	c #96BEFF",
"3	c #77ABFF",
"4	c #609DFF",
"5	c #8EBAFF",
"6	c #98C0FF",
"7	c #A0C4FF",
"8	c #A5C7FF",
"9	c #A6C8FF",
"0	c #99C0FF",
"a	c #8FBAFF",
"b	c #83B3FF",
"c	c #9BC2FF",
"d	c #A7C8FF",
"e	c #B0CEFF",
"f	c #B6D2FF",
"g	c #B8D4FF",
"h	c #A7C9FF",
"i	c #9CC2FF",
"j	c #B4D1FF",
"k	c #BFD8FF",
"l	c #C6DCFF",
"m	c #C9DEFF",
"n	c #8AB6FF",
"o	c #7CAEFF",
"p	c #CCDFFF",
"q	c #D6E6FF",
"r	c #DAE8FF",
"s	c #82B2FF",
"t	c #E3EEFF",
"u	c #EAF2FF",
"v	c #E4EEFF",
"w	c #C7DCFF",
"x	c #85B4FF",
"y	c #F3F7FF",
"z	c #CADEFF",
"A	c #A8C9FF",
"B	c #87B4FF",
"C	c #86B4FF",
"D	c #CCE0FF",
"E	c #C0D8FF",
"F	c #90BBFF",
"G	c #B5D1FF",
"H	c #A8CAFF",
"I	c #81B2FF",
"J	c #77ACFF",
"K	c #5697FF",
".+@#$%&*=-;>$#,'",
"+@)!~{]^/^](~_):",
"@)%<[}|121|}[3%4",
"#!<^56789870ab3%",
"$~[5cdefgfehia[-",
"%{}6djklmlkjh0no",
"&]|7ekpqrqpke7|s",
"*^18flqtuvqwf91x",
"=/29gmruyurzgA2B",
"-^18flqvuvqwf91C",
";]|7ekpqrqDEe7Fs",
">(}0hjkwzwEGH0no",
"$~[aihefgfeHiaI-",
"#_3ba079A970a/J%",
",)%3[n|121FnIJ>4",
"':4%-osxBCso-%4K"};
