/* XPM */
static const char * action1_xpm[] = {
"16 16 197 2",
"  	c None",
". 	c #E0E1E0",
"+ 	c #B0B2B2",
"@ 	c #A1A4A4",
"# 	c #9FA3A2",
"$ 	c #9EA3A2",
"% 	c #9CA3A2",
"& 	c #9AA3A2",
"* 	c #98A3A2",
"= 	c #96A3A2",
"- 	c #97A6A5",
"; 	c #BBD2D1",
"> 	c #DCFAF8",
", 	c #DFFFFD",
"' 	c #DCFFFD",
") 	c #D8FFFD",
"! 	c #5C5D5D",
"~ 	c #707171",
"{ 	c #757776",
"] 	c #747776",
"^ 	c #737676",
"/ 	c #717676",
"( 	c #707676",
"_ 	c #6A7272",
": 	c #505656",
"< 	c #697676",
"[ 	c #B5D0CE",
"} 	c #D9FAF8",
"| 	c #DBFFFD",
"1 	c #D5D6D6",
"2 	c #E7EAE9",
"3 	c #E5E9E8",
"4 	c #E3E5E4",
"5 	c #E0DCDB",
"6 	c #DDE0DF",
"7 	c #D1DFDE",
"8 	c #838C8C",
"9 	c #424645",
"0 	c #687676",
"a 	c #B7D3D1",
"b 	c #D9FCFA",
"c 	c #D7FFFD",
"d 	c #757777",
"e 	c #FDFFFE",
"f 	c #FCFCFB",
"g 	c #FAD9D8",
"h 	c #F9A9A8",
"i 	c #F5C9C8",
"j 	c #E8F4F3",
"k 	c #B4C2C1",
"l 	c #7E8787",
"m 	c #515858",
"n 	c #8FA5A3",
"o 	c #D6F9F7",
"p 	c #747777",
"q 	c #E5EAE9",
"r 	c #FCFFFE",
"s 	c #FDF4F3",
"t 	c #FDAAAA",
"u 	c #FC5E5D",
"v 	c #F89695",
"w 	c #F0EAE9",
"x 	c #E4F6F5",
"y 	c #CDE0DF",
"z 	c #6E7979",
"A 	c #8BA09F",
"B 	c #D5F9F7",
"C 	c #D6FFFD",
"D 	c #737776",
"E 	c #E3EAE9",
"F 	c #F9FDFC",
"G 	c #FCDDDC",
"H 	c #FE9797",
"I 	c #FD7776",
"J 	c #FA8C8B",
"K 	c #EEFBFA",
"L 	c #D9ECEC",
"M 	c #737F7F",
"N 	c #D4F9F7",
"O 	c #D5FFFD",
"P 	c #717777",
"Q 	c #E0EAE9",
"R 	c #F7F9F8",
"S 	c #FABDBC",
"T 	c #FC9291",
"U 	c #FDB5B5",
"V 	c #FD9090",
"W 	c #F8A3A2",
"X 	c #F2F2F1",
"Y 	c #DBECEB",
"Z 	c #747F7F",
"` 	c #D3F9F7",
" .	c #D3FFFD",
"..	c #707777",
"+.	c #DDE8E7",
"@.	c #F4EBEA",
"#.	c #F99A99",
"$.	c #FB7C7B",
"%.	c #FCAFAE",
"&.	c #FE7C7C",
"*.	c #F6D7D6",
"=.	c #DEEAE9",
"-.	c #757F7F",
";.	c #D2FFFD",
">.	c #97A3A2",
",.	c #6E7777",
"'.	c #DAE6E5",
").	c #F2CECD",
"!.	c #F78786",
"~.	c #F88A89",
"{.	c #F8AAA9",
"].	c #FB8E8D",
"^.	c #FC6D6C",
"/.	c #F9B1B0",
"(.	c #E1E4E3",
"_.	c #767F7F",
":.	c #D2F9F7",
"<.	c #CFFFFD",
"[.	c #95A3A2",
"}.	c #6D7776",
"|.	c #D7E3E2",
"1.	c #F1B4B3",
"2.	c #F5908F",
"3.	c #F3E3E2",
"4.	c #F6D4D3",
"5.	c #FA8B8A",
"6.	c #FB9190",
"7.	c #E5D0CF",
"8.	c #787E7D",
"9.	c #D0F9F7",
"0.	c #CBFFFD",
"a.	c #92A3A2",
"b.	c #6B7676",
"c.	c #D5D9D8",
"d.	c #EEADAC",
"e.	c #F0A9A8",
"f.	c #ECF1F0",
"g.	c #EDFDFC",
"h.	c #EFF7F6",
"i.	c #F4B7B6",
"j.	c #F99292",
"k.	c #E8BDBC",
"l.	c #7B7C7C",
"m.	c #CCF9F7",
"n.	c #C5FFFC",
"o.	c #91A3A2",
"p.	c #D1DEDD",
"q.	c #E7D8D7",
"r.	c #E7DCDB",
"s.	c #E5FBF9",
"t.	c #E6FFFE",
"u.	c #E8FDFC",
"v.	c #EBE6E5",
"w.	c #EFD0CF",
"x.	c #E1D4D3",
"y.	c #787D7D",
"z.	c #87A09F",
"A.	c #C3F9F6",
"B.	c #B9FFFC",
"C.	c #8FA3A2",
"D.	c #626F6F",
"E.	c #BCD5D3",
"F.	c #CDE7E5",
"G.	c #CDE9E7",
"H.	c #CDEAE8",
"I.	c #CEEAE8",
"J.	c #CFE8E6",
"K.	c #D0E6E5",
"L.	c #C3D7D5",
"M.	c #687776",
"N.	c #73A09E",
"O.	c #A8F9F5",
"P.	c #A4FFFB",
"Q.	c #94ACAA",
"R.	c #485453",
"S.	c #616F6F",
"T.	c #677776",
"U.	c #667776",
"V.	c #5F706F",
"W.	c #425655",
"X.	c #68A8A6",
"Y.	c #8FF9F5",
"Z.	c #8EFFFA",
"`.	c #BADCDB",
" +	c #90ACAA",
".+	c #89A3A2",
"++	c #88A3A2",
"@+	c #87A3A2",
"#+	c #86A3A2",
"$+	c #85A3A2",
"%+	c #83A3A2",
"&+	c #80A3A1",
"*+	c #7BA3A1",
"=+	c #78ABA9",
"-+	c #89DBD7",
";+	c #8CFDF8",
">+	c #83FFFA",
". + @ # $ % & * = - ; > , ' )   ",
"+ ! ~ { ] ^ / ( _ : < [ } | )   ",
"@ ~ 1 2 3 4 5 6 7 8 9 0 a b c   ",
"# d 2 e f g h i j k l m n o c   ",
"$ p q r s t u v w x y z A B C   ",
"% D E F G H I J i K L M A N O   ",
"& P Q R S T U V W X Y Z A `  .  ",
"* ..+.@.#.$.%.&.$.*.=.-.A ` ;.  ",
">.,.'.).!.~.{.].^./.(._.A :.<.  ",
"[.}.|.1.2.).3.4.5.6.7.8.A 9.0.  ",
"a.b.c.d.e.f.g.h.i.j.k.l.A m.n.  ",
"o.< p.q.r.s.t.u.v.w.x.y.z.A.B.  ",
"C.D.E.F.F.G.H.I.J.K.L.M.N.O.P.  ",
"Q.R.S.T.T.T.T.U.U.U.V.W.X.Y.Z.  ",
"`. +.+++@+@+#+$+%+&+*+=+-+;+>+  ",
"                                "};
